<svg xmlns="http://www.w3.org/2000/svg" width="68.57" height="11.466" viewBox="0 0 68.57 11.466">
  <g id="Group_780" data-name="Group 780" transform="translate(-39 -604.5)">
    <path id="star" d="M10.193,3.756,6.974,3.264,5.531.191a.341.341,0,0,0-.592,0L3.5,3.264.278,3.756a.327.327,0,0,0-.185.552L2.432,6.7l-.553,3.389a.327.327,0,0,0,.481.339L5.236,8.843l2.875,1.589a.327.327,0,0,0,.481-.339L8.039,6.705l2.339-2.4a.327.327,0,0,0-.185-.552Z" transform="translate(39 604.981)" fill="#ffc107"/>
    <path id="star-2" data-name="star" d="M10.193,3.756,6.974,3.264,5.531.191a.341.341,0,0,0-.592,0L3.5,3.264.278,3.756a.327.327,0,0,0-.185.552L2.432,6.7l-.553,3.389a.327.327,0,0,0,.481.339L5.236,8.843l2.875,1.589a.327.327,0,0,0,.481-.339L8.039,6.705l2.339-2.4a.327.327,0,0,0-.185-.552Z" transform="translate(53.398 604.981)" fill="#ffc107"/>
    <path id="star-3" data-name="star" d="M10.193,3.756,6.974,3.264,5.531.191a.341.341,0,0,0-.592,0L3.5,3.264.278,3.756a.327.327,0,0,0-.185.552L2.432,6.7l-.553,3.389a.327.327,0,0,0,.481.339L5.236,8.843l2.875,1.589a.327.327,0,0,0,.481-.339L8.039,6.705l2.339-2.4a.327.327,0,0,0-.185-.552Z" transform="translate(67.796 604.981)" fill="#ffc107"/>
    <path id="star-4" data-name="star" d="M10.193,3.756,6.974,3.264,5.531.191a.341.341,0,0,0-.592,0L3.5,3.264.278,3.756a.327.327,0,0,0-.185.552L2.432,6.7l-.553,3.389a.327.327,0,0,0,.481.339L5.236,8.843l2.875,1.589a.327.327,0,0,0,.481-.339L8.039,6.705l2.339-2.4a.327.327,0,0,0-.185-.552Z" transform="translate(82.194 604.981)" fill="#ffc107"/>
    <path id="star-5" data-name="star" d="M10.193,3.756,6.974,3.264,5.531.191a.341.341,0,0,0-.592,0L3.5,3.264.278,3.756a.327.327,0,0,0-.185.552L2.432,6.7l-.553,3.389a.327.327,0,0,0,.481.339L5.236,8.843l2.875,1.589a.327.327,0,0,0,.481-.339L8.039,6.705l2.339-2.4a.327.327,0,0,0-.185-.552Z" transform="translate(96.592 604.981)" fill="none" stroke="#fff" stroke-width="1"/>
  </g>
</svg>
